<svg xmlns="http://www.w3.org/2000/svg" id="Layer_1" viewBox="0 0 792 205.8"><defs><style>      .st0, .st1, .st2, .st3 {        fill: #010101;      }      .st4, .st5 {        fill: #030303;      }      .st6 {        opacity: .4;      }      .st6, .st7 {        display: none;      }      .st8, .st5, .st7 {        isolation: isolate;      }      .st9 {        fill: #020202;      }      .st10 {        fill: #fff;      }      .st5 {        font-family: Poppins-Regular, Poppins;        font-size: 18px;      }      .st11 {        fill: #ededed;      }      .st1 {        stroke-width: .5px;      }      .st1, .st2, .st3 {        stroke-miterlimit: 10;      }      .st1, .st3 {        stroke: #fff;      }      .st2 {        stroke: #010101;        stroke-width: .4px;      }      .st3 {        stroke-width: .2px;      }    </style></defs><g class="st6"><path class="st10" d="M486.1,177.4v49.7h-75v-75h21.8c-.3.3-.7.5-1,.8-5.2,5.1-10.3,10.3-15.5,15.4s-1.1,1.8,0,2.9c9,9,18,17.9,26.9,26.9,1.1,1.1,1.9,1.2,3,0,4.6-4.6,9.2-9.2,13.8-13.8.4-.4.8-.6,1.5-.6.6,0,1.3,0,2-.1,3-.6,5.3-2.4,7.2-4.8.3-.4.6-.5,1-.5,4.1,0,8.3,0,12.4,0,.9,0,1.5-.2,1.9-1h0ZM460.1,209.6c-.9-2.4-2.7-3.6-5-4.4-3.2-1.1-6.5-2.1-9.7-3.3-.4-.1-.9-.4-1.2-.8-2.9-3-6.4-4.2-10.5-3.6-3,.5-5.3,2.3-7.1,4.7-.3.4-.6.6-1.1.6-4.2,0-8.3,0-12.5,0-1.2,0-1.8.6-1.8,1.7v18c0,1.1.5,1.7,1.6,1.7,2.8,0,5.6,0,8.5,0,1,0,1.5-.6,1.6-1.6,0-.4,0-.7,0-1.1h3.9c.9,0,1.4-.4,1.6-1.1,0-.2,0-.5.1-.7.5,0,1,0,1.5.2,1.5.6,2.9,1.3,4.4,2,2.7,1.3,5.3,2.8,8,4,3.3,1.5,6.6,1.2,10.1,0,7.2-2.7,14.5-5.2,21.8-7.8,1.4-.5,2.6-1.4,3.5-2.5,1.1-1.3,1.5-2.8,1.1-4.5-.7-3.6-3.8-5.5-7.4-4.6-3.8.9-7.5,2.1-11.3,3.1h0Z"></path><path d="M486.1,177.4c-.4.8-1,1-1.9,1-4.1,0-8.3,0-12.4,0-.5,0-.7.1-1,.5-1.8,2.4-4.1,4.2-7.2,4.8-.6.1-1.3.2-2,.1-.6,0-1,.1-1.5.6-4.6,4.6-9.2,9.2-13.8,13.8-1.1,1.1-1.9,1.1-3,0-9-9-18-17.9-26.9-26.9-1.2-1.2-1.2-1.8,0-2.9,5.1-5.1,10.3-10.3,15.5-15.4.3-.3.7-.6,1-.8h.9c.4.3.7.6,1.1.9,1.4,1.4,2.7,2.7,4.1,4.1.3.3.6.4,1,.2,2-.8,4-1.4,6-2.2,2.1-.8,4.2-.9,6.5-.6,2,.3,3.7,1.2,5.4,2.1,2.4,1.2,4.7,2.5,7.1,3.8,1.3.7,2.6,1.2,4,1.2.4-1.6.7-1.9,2.3-1.9h3.3c0-.3,0-.5,0-.7,0-1.6.5-2,2.1-2,2.5,0,5,0,7.5,0,.9,0,1.6.2,2.1.9v19.4h0ZM441.6,159.8c1.9,1.9,3.6,3.6,5.4,5.4.1.1.4.2.6.3,1.5.5,3.1,1,4.6,1.5,1.7.6,3.5,1.1,5.2,1.6.9.3,1.3,1.1,1,1.9-.2.8-1,1.1-1.9.9-.2,0-.4-.1-.5-.2-4.1-1.3-8.2-2.6-12.4-3.9-1.3-.4-2.6,0-3.3,1.2-.7,1.1-.6,2.5.5,3.5.6.5,1.3.9,2,1.2,3.6,1.3,7.2,2.4,10.8,3.7.6.2,1.1.6,1.5,1.1,2.3,2.5,5.1,3.5,8.4,2.9,2.4-.5,4.1-2.2,5.4-4.2.1-.2.1-.4.1-.6,0-3.6,0-7.2,0-10.7,0-.5-.1-.7-.6-.7-1.8-.1-3.4-.7-5-1.5-3.1-1.6-6.2-3.3-9.3-4.8-1.8-.9-3.9-1.2-5.8-.6-2.2.6-4.3,1.5-6.6,2.2h0ZM439.5,190.1c3.6-2.3,7.2-2.3,10.7,0,1.1-1.1,2.2-2.2,3.3-3.3-1.4-2.1-2-4.4-1.5-6.9,0-.2-.1-.5-.2-.5-1.5-.5-3-1-4.6-1.6-.1.2-.2.4-.2.6-1.4,3.9-5.1,6.1-9.2,5.5-3.6-.5-6.6-3.6-7-7.1-.4-4.1,1.7-7.7,5.4-8.9.9-.3,1.5-.7,2.1-1.5.5-.6,1.2-1.1,1.9-1.5.5-.3,1.1-.4,1.5-.6-1-1-2-2-3-3-3.6,2.3-7.2,2.2-10.7,0-1.1,1.1-2.2,2.2-3.3,3.3,2.1,3.1,2.3,7.2,0,10.8,4.9,4.9,9.9,9.9,14.8,14.8h0ZM477.5,160.1v15.4h5.6v-15.4h-5.6ZM437,170.7c-2.3,1-3.6,3.4-3.2,5.8.4,2.4,2.4,4.2,5,4.5,2.2.2,4.6-1.2,5.4-3.4.2-.6.1-.9-.5-1-.4,0-.8-.3-1.2-.4-2.8-.8-4.9-2.4-5.5-5.5h0ZM474.4,175.5v-12.7h-2.5v12.7h2.5ZM422.5,166.7c-1.1,1.1-2.2,2.2-3.1,3.1,1,1,2.1,2.1,3.1,3.2,1.1-2.1,1.1-4.2,0-6.3h0ZM448,192.3c-1.7-1.3-5.2-1.1-6.3,0,1.1,1.1,2.1,2.1,3.1,3.1,1-1,2.1-2.1,3.2-3.2h0ZM430.2,159c1.4,1.2,5,1.2,6.3,0-1.1-1.1-2.1-2.1-3.1-3.1-1,1-2.1,2.1-3.1,3.1h0ZM457.3,183.1c-.8-.4-1.6-.9-2.6-1.4.4,1.1.6,2,1,3.1.6-.6,1.1-1.1,1.6-1.7h0Z"></path><path class="st10" d="M486.1,158c-.5-.8-1.2-.9-2.1-.9-2.5,0-5,0-7.5,0-1.6,0-2,.4-2.1,2,0,.2,0,.4,0,.7h-3.3c-1.6,0-1.9.2-2.3,1.9-1.5,0-2.8-.5-4-1.2-2.4-1.3-4.7-2.6-7.1-3.8-1.7-.9-3.5-1.7-5.4-2.1-2.2-.4-4.4-.2-6.5.6-2,.7-4,1.4-6,2.2-.4.2-.7.1-1-.2-1.3-1.4-2.7-2.7-4.1-4.1-.3-.3-.7-.6-1.1-.9h52.4v5.9h0Z"></path><path d="M460.1,209.6c3.8-1.1,7.6-2.1,11.3-3.1,3.6-.9,6.7,1,7.4,4.6.4,1.7,0,3.2-1.1,4.5-.9,1.2-2.1,2-3.5,2.5-7.3,2.6-14.6,5.1-21.8,7.8-3.4,1.3-6.7,1.5-10.1,0-2.7-1.2-5.3-2.7-8-4-1.4-.7-2.9-1.4-4.4-2-.4-.2-1-.2-1.5-.2,0,.3,0,.5-.1.7-.2.7-.7,1.1-1.6,1.1-1.3,0-2.5,0-3.9,0,0,.4,0,.8,0,1.1,0,1-.6,1.6-1.6,1.6-2.8,0-5.6,0-8.5,0-1,0-1.6-.6-1.6-1.7v-18c0-1.2.5-1.7,1.8-1.7,4.2,0,8.3,0,12.5,0,.5,0,.8-.1,1.1-.6,1.8-2.4,4.1-4.2,7.1-4.7,4.1-.6,7.6.6,10.5,3.6.3.3.7.6,1.2.8,3.2,1.1,6.4,2.2,9.7,3.3,2.3.8,4.1,2,5,4.4h0ZM428.4,216.8c2.4.1,4.5,1,6.5,2.1,2.7,1.5,5.5,2.9,8.2,4.3,1.7.8,3.5,1.2,5.4.8,1-.2,2-.5,3-.9,7.2-2.6,14.4-5.2,21.6-7.7,1-.4,1.8-.9,2.4-1.7,1.2-1.8,0-4.2-2.1-4.3-.6,0-1.2,0-1.8.2-3.5,1-7.1,2-10.6,2.9-.5.1-.8.4-1,.9-1,2.9-4,4.5-6.9,3.7-4.4-1.3-8.8-2.8-13.2-4.2-.4-.1-.9-.5-1-.9-.1-.4,0-1.1.2-1.5.3-.5.9-.6,1.6-.4,2.6.8,5.2,1.6,7.8,2.5,1.9.6,3.7,1.3,5.6,1.7,1.9.4,3.5-1.4,3.2-3.2-.3-1.6-1.5-2.3-2.9-2.8-3.6-1.2-7.2-2.4-10.8-3.7-.5-.2-.9-.5-1.3-.9-2.1-2.5-4.8-3.5-8-3.1-2.5.3-4.2,1.9-5.6,3.9-.2.3-.4.8-.4,1.2,0,3.5,0,6.9,0,10.4v.8h0ZM419.8,221.3v-15.4h-5.6v15.4h5.6ZM422.9,205.9v12.7h2.5v-12.7h-2.5Z"></path><path class="st10" d="M441.6,159.8c2.3-.8,4.4-1.6,6.6-2.2,2-.6,4-.3,5.8.6,3.1,1.6,6.2,3.2,9.3,4.8,1.6.8,3.2,1.4,5,1.5.5,0,.6.2.6.7,0,3.6,0,7.2,0,10.7,0,.2,0,.5-.1.6-1.3,2-3,3.7-5.4,4.2-3.3.7-6.1-.3-8.4-2.9-.4-.4-.9-.9-1.5-1.1-3.6-1.3-7.2-2.4-10.8-3.7-.7-.2-1.4-.7-2-1.2-1-.9-1.1-2.3-.5-3.5.7-1.1,2-1.6,3.3-1.2,4.1,1.3,8.2,2.6,12.4,3.9.2,0,.4.1.5.2.9.2,1.6-.2,1.9-.9.3-.8-.1-1.6-1-1.9-1.7-.6-3.5-1.1-5.2-1.6-1.5-.5-3.1-1-4.6-1.5-.2,0-.4-.1-.6-.3-1.8-1.8-3.5-3.5-5.4-5.4h0ZM463.8,171.6c0-.8-.7-1.5-1.5-1.4-.8,0-1.4.7-1.4,1.5s.7,1.5,1.5,1.5,1.5-.7,1.4-1.5h0Z"></path><path class="st10" d="M439.5,190.1c-5-5-9.9-9.9-14.8-14.8,2.3-3.5,2.1-7.6,0-10.8,1.1-1.1,2.2-2.2,3.3-3.3,3.5,2.2,7.2,2.2,10.7,0,1,1,2,2,3,3-.5.2-1.1.3-1.5.6-.7.4-1.4.9-1.9,1.5-.6.8-1.2,1.2-2.1,1.5-3.7,1.3-5.8,4.8-5.4,8.9.3,3.5,3.4,6.6,7,7.1,4.1.6,7.8-1.6,9.2-5.5,0-.2.1-.4.2-.6,1.5.5,3.1,1,4.6,1.6.1,0,.3.4.2.5-.4,2.5.2,4.8,1.5,6.9-1.1,1.1-2.2,2.2-3.3,3.3-3.5-2.2-7.1-2.2-10.7,0h0Z"></path><path class="st10" d="M477.5,160.1h5.6v15.4h-5.6v-15.4Z"></path><path class="st10" d="M437,170.7c.6,3.1,2.7,4.7,5.5,5.5.4.1.8.3,1.2.4.6.1.7.4.5,1-.9,2.2-3.2,3.7-5.4,3.4-2.6-.3-4.6-2.1-5-4.5-.4-2.4.9-4.8,3.2-5.8h0Z"></path><path class="st10" d="M474.4,175.5h-2.5v-12.7h2.5v12.7Z"></path><path class="st10" d="M422.5,166.7c1.1,2.1,1.1,4.2,0,6.3-1.1-1.1-2.1-2.1-3.1-3.2,1-.9,2-2,3.1-3.1h0Z"></path><path class="st10" d="M448,192.3c-1.1,1.1-2.1,2.2-3.2,3.2-1-1-2.1-2.1-3.1-3.1,1.2-1.1,4.6-1.3,6.3,0h0Z"></path><path class="st10" d="M430.2,159c1.1-1.1,2.1-2.1,3.1-3.1,1,1,2.1,2.1,3.1,3.1-1.2,1.2-4.9,1.2-6.3,0h0Z"></path><path class="st10" d="M457.3,183.1c-.5.5-1,1-1.6,1.7-.3-1-.6-2-1-3.1,1,.5,1.8.9,2.6,1.4h0Z"></path><path class="st10" d="M428.4,216.8v-.8c0-3.5,0-6.9,0-10.4,0-.4.1-.9.4-1.2,1.4-1.9,3.1-3.5,5.6-3.9,3.2-.4,5.9.6,8,3.1.3.4.8.7,1.3.9,3.6,1.2,7.2,2.4,10.8,3.7,1.4.5,2.6,1.2,2.9,2.8.4,1.9-1.3,3.7-3.2,3.2-1.9-.4-3.8-1.1-5.6-1.7-2.6-.8-5.2-1.6-7.8-2.5-.6-.2-1.2,0-1.6.4-.2.4-.4,1-.2,1.5,0,.4.6.8,1,.9,4.4,1.4,8.8,2.9,13.2,4.2,2.9.9,5.9-.8,6.9-3.7.2-.5.5-.8,1-.9,3.5-1,7.1-2,10.6-2.9.6-.2,1.2-.2,1.8-.2,2.1.1,3.3,2.5,2.1,4.3-.6.9-1.4,1.4-2.4,1.7-7.2,2.6-14.4,5.2-21.6,7.7-1,.4-2,.7-3,.9-1.9.4-3.7,0-5.4-.8-2.8-1.4-5.5-2.8-8.2-4.3-2-1.1-4.1-2-6.5-2.1h0ZM433.6,209.8c0,.8.7,1.5,1.5,1.4.8,0,1.4-.7,1.4-1.5,0-.8-.7-1.5-1.5-1.5s-1.5.6-1.4,1.5h0Z"></path><path class="st10" d="M419.8,221.3h-5.6v-15.4h5.6v15.4Z"></path><path class="st10" d="M422.9,205.9h2.5v12.7h-2.5v-12.7Z"></path><path d="M463.8,171.6c0,.8-.6,1.5-1.4,1.5-.8,0-1.5-.7-1.5-1.5s.7-1.4,1.4-1.5c.8,0,1.5.6,1.5,1.4h0Z"></path><path d="M433.6,209.8c0-.9.6-1.5,1.4-1.5s1.5.6,1.5,1.5-.7,1.4-1.4,1.5c-.8,0-1.5-.6-1.5-1.4h0Z"></path></g><g class="st7"><g class="st7"><text class="st5" transform="translate(685.3 156.4)"><tspan x="0" y="0">EMI</tspan></text></g></g><g><path class="st11" d="M19.6,6h722.3c9.8,0,19.5.2,29.3,0h1.3c2.4,0,2.4-3.8,0-3.8H50.1c-9.8,0-19.5-.2-29.3,0h-1.3c-2.4,0-2.4,3.8,0,3.8h0Z"></path><path class="st11" d="M19.6,204.2h722.3c9.8,0,19.5.2,29.3,0h1.3c2.4,0,2.4-3.8,0-3.8H50.1c-9.8,0-19.5-.2-29.3,0h-1.3c-2.4,0-2.4,3.8,0,3.8h0Z"></path><g><path class="st0" d="M470.1,62.2h0l.6.3c-2-2-4-4-6.1-6.1-1-1-2-2-3-3s-2.3-2.8-3.9-1.5c-2,1.7-3.7,3.7-5.5,5.5l-7.4,7.4c-.8.8-1.5,1.8-.5,3,.3.4.7.7,1.1,1.1l6.6,6.6,14.8,14.8c.4.4.9,1,1.5,1.2,1.3.4,2.2-.9,3-1.6,2.5-2.5,5-4.9,7.4-7.4.3-.3.6-.5.6-.9l-.3.6c1.4-1.3,2.7-2.7,4-4.1.8-.8-.5-2.1-1.3-1.3l-2.4,2.4c-.5.5-1.9,1.5-1.9,2.3l.3-.6c-2,2-4,4-5.9,5.9-.9.9-1.8,2.2-2.9,2.9-.3.2,0,.2,0,0s-.4-.3-.5-.5c-4.4-4.4-8.9-8.8-13.3-13.3l-7-7-2-2c0,0-.4-.3-.4-.4,0,0,0,.1.1,0,1.8-2.2,4.1-4.1,6.1-6.1l6.7-6.7c.1-.1.6-.4.4-.5.4,0,1.2,1.2,1.5,1.5,1,1,2,2,3,3,1.2,1.2,2.3,2.3,3.5,3.5l1.9,1.9c.3.3.7.9,1.2.9,1.2,0,1.2-1.8,0-1.8h0Z"></path><path class="st0" d="M449.1,61.9c1.1,1.2,1.6,2.9,1.4,4.6-.2,1.5-1,2.9-2.2,3.8-.4.3-.3.9,0,1.3.4.4.9.3,1.3,0,1.5-1.3,2.5-3.1,2.7-5.1.2-2.1-.5-4.2-1.9-5.8-.8-.9-2,.4-1.3,1.3h0s0,0,0,0Z"></path><path class="st0" d="M453.6,57.3c3,2.8,7.7,2.8,10.7,0,.8-.8-.4-2.1-1.3-1.3-2.3,2.2-5.9,2.2-8.1,0-.8-.8-2.1.5-1.3,1.3h0Z"></path><path class="st0" d="M469.3,71.3c0,3.3-3.2,5.9-6.4,5.1s-5-4.4-3.5-7.4c.8-1.6,2.4-2.7,4.2-2.9l-.9-1.1c-.7,2.6.8,5,3.3,5.9,1.3.5,2.7.9,4,1.4,1.1.4,1.6-1.4.5-1.7-1.2-.4-2.4-.8-3.6-1.2-.6-.2-1.1-.4-1.6-.8-.8-.8-1.1-1.9-.9-3,.1-.5-.3-1.2-.9-1.1-2.2.2-4.1,1.3-5.4,3.2-1.2,1.8-1.5,4.1-.8,6.2,1.5,4.2,6.6,6.1,10.4,3.7,2-1.3,3.3-3.5,3.3-6,0-1.2-1.8-1.2-1.8,0h0Z"></path><path class="st0" d="M464.7,86.7c2.3-2.6,6.2-2.8,8.7-.3.8.8,2.1-.4,1.3-1.3-3.1-3.2-8.3-3-11.2.3-.8.9.5,2.1,1.3,1.3h0Z"></path><path class="st0" d="M479.3,81.4c0-.5-.4-.7-.6-1.1-.4-.5-.8-1.1-1-1.7-.5-1.3-.4-2.7,0-4,.1-.3.2-.5.1-.8,0-.1-.3-.5-.2-.4.1.2-.2-.3-.2-.3,0,0-.2-.2-.2-.3-.3-.2-.7-.3-1-.4-2.1-.7-4.1-1.4-6.2-2.1-1.2-.4-2.4-.8-3.6-1.2-2.1-.8-2.7-3.6-.9-5.1,1.5-1.2,3.1-.4,4.6,0,.2,0-.3,0,.1,0,.2,0,.4.1.5.2.6.2,1.1.4,1.7.6,2.6.9,5.2,1.7,7.8,2.6,1.1.4,1.6-1.4.5-1.7-2.4-.8-4.9-1.6-7.3-2.4-1-.3-1.9-.7-2.9-1-.3,0-.1,0,0,0-.1,0-.3,0-.4-.1-.4-.1-.7-.2-1.1-.4-1.1-.3-2.2-.4-3.2,0-2.2.8-3.5,3.2-3,5.6.5,1.9,1.9,3,3.6,3.6,2.3.8,4.6,1.6,6.9,2.4l2.4.8c.2,0,.4.2.6.2.3,0-.4-.2-.2-.1.4.2-.2-.3,0,.1s0-.2,0-.2-.2.6-.2.6c-.1.4-.2.8-.2,1.2,0,.8,0,1.5.1,2.3.3,1.4,1.1,2.7,2.1,3.8l-.3-.6h0c0,1.2,1.8,1.2,1.8,0h0s0,0,0,0Z"></path><path class="st0" d="M475.7,73.9c2,3,5.5,4.8,9.2,4.4,3.2-.4,6.1-2.4,7.5-5.3.5-1-1-1.9-1.5-.9-1.1,2.4-3.3,4.1-6,4.5-3,.4-6-1-7.6-3.5-.6-1-2.2,0-1.5.9h0Z"></path><path class="st0" d="M464.5,57.7c3.4-1.4,7.3-3.9,11.1-2.9,1.5.4,3.1,1.4,4.5,2.1l5.1,2.6c.5.3,1.1.6,1.6.8,1.4.6,2.8.7,4.3.7s1.2-1.8,0-1.8-2.7,0-4-.7c-.4-.2-.8-.4-1.2-.6l-5.4-2.7c-1.6-.8-3.2-1.8-5-2.2-2.5-.5-4.7,0-7,1l-5.1,2.2c-1.1.5-.1,2,.9,1.5h0Z"></path><path class="st0" d="M496.5,71.6h-3.6c-.2,0-.8-.1-.9,0-.2,0,.2.4.3.3,0,0,0-.1,0-.1,0-.2,0-.5,0-.7v-11.1c0-.2.1-1,0-1.2,0,0-.5.2-.3.3.1,0,.4,0,.5,0h4.1l-.9-.9v14.2c0,1.2,1.8,1.2,1.8,0v-14.2c0-.5-.4-.9-.9-.9h-2.4c-.8,0-1.7-.1-2.5,0-1.7.3-1.2,2.9-1.2,4.2v9.5c0,.5,0,1.1.2,1.6.6,1,2,.8,3,.8h2.9c1.2,0,1.2-1.8,0-1.8h0Z"></path><path class="st0" d="M503.2,71.6h-6.7l.9.9v-7c0-2.8.2-5.7,0-8.5,0,0,0-.2,0-.2,0,0-.2,0,0,0,.6,0,1.3,0,1.9,0h2.6c.4,0,1-.1,1.4,0-.1,0-.1-.2-.1,0v14.3c0,.1,0,.3,0,.5,0,.2.2,0-.1,0-1.1.2-.7,1.9.5,1.7,1.6-.2,1.5-1.8,1.5-3v-10.6c0-1,0-2,0-3-.1-2-2.2-1.7-3.6-1.7h-2.8c-.5,0-1.1,0-1.7,0-1.4.4-1.2,1.9-1.2,3v14.4c0,.5.4.9.9.9h6.7c1.2,0,1.2-1.8,0-1.8h0s0,0,0,0Z"></path><circle class="st2" cx="484.4" cy="67.8" r="1.2"></circle><path class="st0" d="M464.3,103.2c2,.7,4.1,1.4,6.2,2.1,1.1.4,2.3.8,3.5,1.2.1,0,.3,0,.4.1.1,0,.5.2.3,0-.3,0,.1,0,.1,0,.1,0,.3,0,.4.1.3,0,.6.2.9.3,2,.7,4.2,0,5.5-1.8s1.1-4.1-.2-5.8c-.9-1.2-2.2-1.5-3.5-2-1-.3-1.9-.7-2.9-1-1.1-.4-2.3-.8-3.4-1.2l-2.1-.7c-.2,0-.4-.2-.6-.2,0,0,0,0-.1,0-.2,0,.5.3.3.1,0,0-.1-.1-.2-.2l.3.6c0-.2,0-.4-.1-.5v-.2c-.3-.1-.3,0,0,.2-.2-1.1-1.9-.7-1.7.5,0,.3.2.5.4.6l-.3-.6c.1,1.1,1.1,1.3,2,1.6l3.7,1.3c1.8.6,3.5,1.2,5.3,1.8,1.4.5,2.5,1.4,2.5,3s-2.1,3.4-4.1,2.8c-.5-.2-1-.4-1.5-.5-.5-.2,0,0-.1,0h-.4c-1-.5-2-.8-3-1.1-2.2-.8-4.5-1.5-6.7-2.2-1.1-.4-1.6,1.4-.5,1.7h0Z"></path><path class="st0" d="M469.2,94.9c-2-3-5.5-4.8-9.2-4.4-3.2.4-6.1,2.4-7.5,5.3-.5,1,1,1.9,1.5.9,1.1-2.4,3.3-4.1,6-4.5,3-.4,6,1,7.6,3.5.6,1,2.2,0,1.5-.9h0Z"></path><path class="st0" d="M481.1,111.1c-1.5.5-2.9,1-4.3,1.6-2.1.8-4.1,1.7-6.4,1.5-1.9-.2-3.7-1.3-5.4-2.2l-5.4-2.7c-.5-.3-1.1-.5-1.6-.8-1.5-.6-2.9-.7-4.4-.7s-1.2,1.8,0,1.8,2.7,0,4,.7c.4.2.8.4,1.2.6l5.5,2.7c1.7.8,3.3,1.8,5.2,2.2,2.5.4,4.6-.3,6.8-1.1,1.7-.6,3.4-1.3,5.1-1.9,1.1-.4.6-2.1-.5-1.7h0Z"></path><path class="st0" d="M448.4,97.2h3.6c.2,0,.8.1.9,0,.2,0-.2-.4-.3-.3,0,0,0,.1,0,.1,0,.2,0,.5,0,.7v11.1c0,.2-.1,1,0,1.2,0,0,.5-.2.3-.3-.1,0-.4,0-.5,0h-4.1l.9.9v-14.2c0-1.2-1.8-1.2-1.8,0v14.2c0,.5.4.9.9.9h2.4c.8,0,1.7.1,2.5,0,1.7-.3,1.2-2.9,1.2-4.2v-9.5c0-.5,0-1.1-.2-1.6-.6-1-2-.8-3-.8h-2.9c-1.2,0-1.2,1.8,0,1.8h0Z"></path><path class="st0" d="M441.7,97.2h6.7l-.9-.9v12.2c0,1.1-.1,2.2,0,3.3,0,0,0,.2,0,.2,0,0,.2,0,0,0h-4.4c-.4,0-1,.1-1.4,0,0,0,.1.2.1,0v-14.2c0-.2,0-.3,0-.5,0-.2,0,0-.1,0,1.1-.2,1.1-1.9,0-1.8-1.7.2-1.7,1.6-1.7,2.9v4.9c0,2.9-.2,5.8,0,8.7.1,2,2.1,1.7,3.5,1.7h2.8c.5,0,1.1,0,1.6,0,1.5-.3,1.4-1.8,1.4-3v-14.3c0-.5-.4-.9-.9-.9h-6.7c-1.2,0-1.2,1.8,0,1.8h0Z"></path><circle class="st2" cx="460.5" cy="101" r="1.2"></circle><path class="st0" d="M481.6,104.3c2-.7,4.1-1.4,6.1-2.1l3.9-1.4c.8-.3,1.6-.7,2.5-.7,2.4,0,3.8,2.7,2.6,4.7-.6.9-1.4,1.2-2.4,1.5l-7.6,2.7c-2,.7-4.1,1.4-6.1,2.1-1.1.4-.6,2.1.5,1.7,4.6-1.6,9.3-3.2,13.9-4.9,1.2-.4,2.3-.9,3-2,1.5-2,1.1-4.9-.8-6.5-2.5-2.2-5.4-.7-8.1.2s-5.4,1.9-8,2.8c-1.1.4-.6,2.1.5,1.7h0Z"></path><g class="st8"><path class="st0" d="M393.1,148.4c.6-1,1.3-1.7,2.3-2.3s2-.8,3.2-.8,2.6.3,3.6,1c1,.7,1.8,1.6,2.2,2.8h-2c-.3-.8-.8-1.3-1.5-1.7-.7-.4-1.4-.6-2.3-.6s-1.7.2-2.4.6c-.7.4-1.2,1-1.6,1.7s-.6,1.6-.6,2.6.2,1.9.6,2.6.9,1.3,1.6,1.7c.7.4,1.5.6,2.4.6s1.7-.2,2.3-.6,1.2-1,1.5-1.7h2c-.5,1.2-1.2,2.1-2.2,2.8-1,.7-2.2,1-3.6,1s-2.2-.3-3.2-.8-1.7-1.3-2.3-2.3c-.6-1-.8-2.1-.8-3.3s.3-2.3.8-3.3Z"></path><path class="st0" d="M414.1,155.2h-5.5l-1,2.8h-1.7l4.5-12.5h1.9l4.5,12.5h-1.7l-1-2.8ZM413.7,153.8l-2.3-6.3-2.3,6.3h4.5Z"></path><path class="st0" d="M420.6,157.6c-.7-.3-1.2-.7-1.5-1.2-.4-.5-.6-1.1-.6-1.8h1.7c0,.6.3,1.1.7,1.5.4.4,1,.6,1.9.6s1.4-.2,1.8-.6.7-.9.7-1.5-.1-.9-.4-1.2-.6-.5-1-.7c-.4-.2-.9-.3-1.6-.5-.8-.2-1.5-.4-2-.6-.5-.2-.9-.6-1.3-1-.4-.5-.5-1.1-.5-1.9s.2-1.3.5-1.8.8-.9,1.5-1.2,1.4-.4,2.2-.4c1.2,0,2.1.3,2.9.9s1.2,1.4,1.3,2.3h-1.8c0-.5-.3-.9-.8-1.3-.4-.4-1-.5-1.8-.5s-1.2.2-1.7.5c-.4.4-.6.8-.6,1.5s.1.8.4,1.1.6.5,1,.7c.4.1.9.3,1.6.5.8.2,1.5.5,2,.7.5.2.9.6,1.3,1,.4.5.5,1.1.5,1.9s-.2,1.2-.5,1.7c-.3.5-.8,1-1.4,1.3s-1.4.5-2.2.5-1.6-.1-2.2-.4Z"></path><path class="st0" d="M439.1,145.4v12.5h-1.6v-5.7h-6.4v5.7h-1.6v-12.5h1.6v5.5h6.4v-5.5h1.6Z"></path><path class="st0" d="M449.2,157.2c-1-.5-1.7-1.3-2.3-2.3-.6-1-.8-2.1-.8-3.3s.3-2.3.8-3.3c.6-1,1.3-1.7,2.3-2.3s2-.8,3.2-.8,2.2.3,3.2.8,1.7,1.3,2.3,2.3c.6,1,.8,2.1.8,3.3s-.3,2.3-.8,3.3c-.6,1-1.3,1.7-2.3,2.3-1,.5-2,.8-3.2.8s-2.2-.3-3.2-.8ZM454.7,156c.7-.4,1.3-1,1.7-1.7s.6-1.6.6-2.6-.2-1.9-.6-2.6-1-1.3-1.6-1.7c-.7-.4-1.5-.6-2.4-.6s-1.7.2-2.4.6c-.7.4-1.2,1-1.6,1.7s-.6,1.6-.6,2.6.2,1.9.6,2.6,1,1.3,1.7,1.7c.7.4,1.5.6,2.4.6s1.7-.2,2.4-.6Z"></path><path class="st0" d="M470.7,157.9h-1.6l-6.6-10v10h-1.6v-12.6h1.6l6.6,10v-10h1.6v12.6Z"></path><path class="st0" d="M485.8,146.2c1,.5,1.8,1.2,2.3,2.2.5.9.8,2.1.8,3.3s-.3,2.4-.8,3.3c-.5.9-1.3,1.7-2.3,2.2s-2.2.7-3.6.7h-3.9v-12.5h3.9c1.4,0,2.6.3,3.6.8ZM485.9,155.3c.9-.9,1.3-2.1,1.3-3.6s-.4-2.8-1.3-3.7c-.9-.9-2.1-1.3-3.7-1.3h-2.3v9.9h2.3c1.6,0,2.9-.4,3.7-1.3Z"></path><path class="st0" d="M492.7,146.7v4.2h4.6v1.3h-4.6v4.3h5.1v1.3h-6.8v-12.6h6.8v1.4h-5.1Z"></path><path class="st0" d="M501.9,156.6h4.4v1.3h-6v-12.5h1.6v11.2Z"></path><path class="st0" d="M509.7,145.4v12.5h-1.6v-12.5h1.6Z"></path><path class="st0" d="M522.8,145.4l-4.7,12.5h-1.9l-4.7-12.5h1.7l3.9,10.8,3.9-10.8h1.7Z"></path><path class="st0" d="M526.3,146.7v4.2h4.6v1.3h-4.6v4.3h5.1v1.3h-6.8v-12.6h6.8v1.4h-5.1Z"></path><path class="st0" d="M540.5,157.9l-3-5.1h-2v5.1h-1.6v-12.5h4c.9,0,1.7.2,2.4.5.7.3,1.1.8,1.5,1.3.3.6.5,1.2.5,1.9s-.2,1.6-.7,2.3c-.5.7-1.2,1.1-2.2,1.3l3.2,5.3h-2ZM535.5,151.5h2.4c.9,0,1.6-.2,2-.7.4-.4.7-1,.7-1.8s-.2-1.3-.7-1.7c-.4-.4-1.1-.6-2-.6h-2.4v4.8Z"></path><path class="st0" d="M553.6,145.4l-4.1,7.8v4.7h-1.6v-4.7l-4.1-7.8h1.8l3.1,6.4,3.1-6.4h1.8Z"></path></g></g><g><g class="st8"><path class="st0" d="M201.6,146c.8-.6,1.8-.9,3-.9s1.5.1,2.1.4c.6.3,1,.7,1.4,1.2s.5,1.1.5,1.7-.2,1.4-.6,1.9-1,.9-1.7,1h0c.8.3,1.4.7,1.9,1.2.5.6.7,1.3.7,2.2s-.2,1.3-.5,1.8c-.3.5-.8,1-1.4,1.3-.6.3-1.4.5-2.2.5-1.3,0-2.3-.3-3.1-1-.8-.7-1.3-1.6-1.4-2.8h1.6c0,.7.4,1.3.9,1.8.5.5,1.2.7,2,.7s1.5-.2,1.9-.7c.4-.4.7-1,.7-1.7s-.3-1.5-.9-1.9c-.6-.4-1.5-.6-2.7-.6h-.4v-1.4h.4c1.1,0,1.9-.2,2.5-.5.6-.4.8-.9.8-1.6s-.2-1.1-.6-1.5c-.4-.4-1-.6-1.8-.6s-1.3.2-1.8.6c-.5.4-.7.9-.8,1.5h-1.6c0-1.1.5-2,1.3-2.6Z"></path><path class="st0" d="M211.9,146.9c.7-1.2,1.8-1.7,3.5-1.7s2.8.6,3.5,1.7c.7,1.2,1,2.8,1,4.8s-.3,3.7-1,4.9c-.7,1.2-1.8,1.7-3.5,1.7s-2.9-.6-3.5-1.7c-.7-1.2-1-2.8-1-4.9s.3-3.7,1-4.8ZM218.1,149.1c-.1-.7-.4-1.3-.8-1.8-.4-.4-1-.7-1.8-.7s-1.4.2-1.9.7c-.4.4-.7,1-.8,1.8s-.2,1.6-.2,2.7,0,2,.2,2.7c.1.7.4,1.3.8,1.8.4.4,1,.7,1.9.7s1.4-.2,1.8-.7c.4-.4.7-1,.8-1.8.1-.7.2-1.6.2-2.7s0-1.9-.2-2.7Z"></path><path class="st0" d="M234.8,146.6c1,.5,1.8,1.2,2.3,2.2.5.9.8,2.1.8,3.3s-.3,2.4-.8,3.3c-.5.9-1.3,1.7-2.3,2.2-1,.5-2.2.7-3.6.7h-3.9v-12.5h3.9c1.4,0,2.6.3,3.6.8ZM234.9,155.7c.9-.9,1.3-2.1,1.3-3.6s-.4-2.8-1.3-3.7c-.9-.9-2.1-1.3-3.7-1.3h-2.3v9.9h2.3c1.6,0,2.9-.4,3.7-1.3Z"></path><path class="st0" d="M247.4,155.6h-5.5l-1,2.8h-1.7l4.5-12.5h1.9l4.5,12.5h-1.7l-1-2.8ZM247,154.2l-2.3-6.3-2.3,6.3h4.5Z"></path><path class="st0" d="M260.9,145.8l-4.1,7.8v4.7h-1.6v-4.7l-4.1-7.8h1.8l3.1,6.4,3.1-6.4h1.8Z"></path><path class="st0" d="M274.1,158.4l-3-5.1h-2v5.1h-1.6v-12.5h4c.9,0,1.7.2,2.4.5.7.3,1.1.8,1.5,1.3.3.6.5,1.2.5,1.9s-.2,1.6-.7,2.3c-.5.7-1.2,1.1-2.2,1.3l3.1,5.3h-2ZM269.1,151.9h2.4c.9,0,1.6-.2,2-.7.4-.4.7-1,.7-1.8s-.2-1.3-.7-1.7-1.1-.6-2-.6h-2.4v4.8Z"></path><path class="st0" d="M280.1,147.1v4.2h4.6v1.3h-4.6v4.3h5.1v1.3h-6.8v-12.6h6.8v1.4h-5.1Z"></path><path class="st0" d="M295.4,145.8v1.3h-3.4v11.2h-1.6v-11.2h-3.4v-1.3h8.5Z"></path><path class="st0" d="M299,145.8v7.9c0,1.1.3,1.9.8,2.5s1.3.8,2.3.8,1.7-.3,2.3-.8.8-1.4.8-2.5v-7.9h1.6v7.9c0,1-.2,1.9-.6,2.6s-1,1.2-1.7,1.6c-.7.3-1.5.5-2.4.5s-1.7-.2-2.4-.5c-.7-.3-1.3-.9-1.7-1.6s-.6-1.6-.6-2.6v-7.9h1.6Z"></path><path class="st0" d="M316.1,158.4l-3-5.1h-2v5.1h-1.6v-12.5h4c.9,0,1.7.2,2.4.5.7.3,1.1.8,1.5,1.3.3.6.5,1.2.5,1.9s-.2,1.6-.7,2.3c-.5.7-1.2,1.1-2.2,1.3l3.2,5.3h-2ZM311.2,151.9h2.4c.9,0,1.6-.2,2-.7.4-.4.7-1,.7-1.8s-.2-1.3-.7-1.7c-.4-.4-1.1-.6-2-.6h-2.4v4.8Z"></path><path class="st0" d="M330.3,158.4h-1.6l-6.6-10v10h-1.6v-12.6h1.6l6.6,10v-10h1.6v12.6Z"></path><path class="st0" d="M334.9,158c-.7-.3-1.2-.7-1.5-1.2-.4-.5-.6-1.1-.6-1.8h1.7c0,.6.3,1.1.7,1.5.4.4,1,.6,1.9.6s1.4-.2,1.8-.6.7-.9.7-1.5-.1-.9-.4-1.2c-.3-.3-.6-.5-1-.7-.4-.2-.9-.3-1.6-.5-.8-.2-1.5-.4-2-.6-.5-.2-.9-.6-1.3-1s-.5-1.1-.5-1.9.2-1.3.5-1.8c.3-.5.8-.9,1.5-1.2s1.4-.4,2.2-.4c1.2,0,2.1.3,2.9.9s1.2,1.4,1.3,2.3h-1.8c0-.5-.3-.9-.8-1.3-.4-.4-1-.5-1.8-.5s-1.2.2-1.7.5c-.4.4-.6.8-.6,1.5s.1.8.4,1.1c.3.3.6.5,1,.7.4.1.9.3,1.6.5.8.2,1.5.5,2,.7.5.2.9.6,1.3,1s.5,1.1.5,1.9-.2,1.2-.5,1.7c-.3.5-.8,1-1.4,1.3-.6.3-1.4.5-2.2.5s-1.6-.1-2.2-.4Z"></path></g><path class="st0" d="M304.5,100.4c-.2,1-.4,1.9-.7,2.9-1.7,4.9-5.1,8.1-9.8,10-1.3.5-2.7.8-4,1.2-.6.2-1.1-.1-1.3-.7-.2-.6,0-1,.6-1.3,1.9-.9,3.6-2,4.9-3.6,2.3-2.8,2.5-6.7.4-9.3-3,1.7-5.9,3.4-8.9,5.1-6.2,3.6-12.4,7.1-18.5,10.7-.7.4-1.3.4-2,0-8.8-5.1-17.6-10.2-26.5-15.3-.6-.3-.9-.8-.9-1.5,0-10.2,0-20.5,0-30.7,0-.8.3-1.2.9-1.6,8.8-5.1,17.7-10.2,26.5-15.3.7-.4,1.2-.4,1.9,0,8.8,5.1,17.6,10.2,26.5,15.3.7.4.9.9.9,1.6,0,5.5,0,11,0,16.5,0,.5.2.7.6.9,4.4,2,7.5,5.2,8.9,9.9.2.7.3,1.4.5,2.1v3h0ZM240.1,69.3c0,.2,0,.3,0,.4v28.2c0,.4.1.6.4.8,8.1,4.7,16.1,9.3,24.2,14,.2,0,.3.2.5.2,0-.1,0-.2,0-.3,0-9.4,0-18.8,0-28.3,0-.2-.2-.6-.4-.7-2.2-1.3-4.5-2.6-6.7-3.9-.1,0-.3-.1-.5-.2v10.1c0,1.3-.8,1.8-1.9,1.1-2.3-1.3-4.7-2.7-7-4-.8-.4-1.1-1-1.1-1.9,0-3.5,0-7.1,0-10.6,0-.2-.1-.6-.3-.7-2.4-1.4-4.8-2.8-7.3-4.2h0ZM267.3,112.9c.3-.2.5-.3.7-.4,5.2-3,10.4-6,15.6-9,2.8-1.6,5.6-3.2,8.4-4.8.6-.3.7-1.1.2-1.4-2.1-1.3-4.4-1.9-6.8-2,0,1.1,0,2.1,0,3.1,0,.5,0,1-.6,1.3-.5.2-1,0-1.4-.3-3.8-2.8-7.6-5.6-11.4-8.4-1-.7-1-1.4,0-2.2,2.4-2,4.7-3.9,7.1-5.9,1.5-1.3,3-2.6,4.6-3.8.3-.2.9-.3,1.2-.2.3.1.5.6.6,1,0,.2,0,.6,0,.8v2.2c2.4.4,4.8.7,7,1.1v-14.8c-.2,0-.3.2-.5.2-8.1,4.7-16.1,9.3-24.2,13.9-.4.2-.5.5-.5.9v28.4h0ZM283.3,96.7c0-1,0-1.7,0-2.5,0-.6.4-1,1-1,3.5,0,6.8.7,9.6,2.8,4.4,3.2,5.6,8.7,2.6,13.2,0,0-.1.2-.1.3.5-.2.9-.5,1.2-.8,3.8-3.4,5.6-7.6,4.4-12.7-1.1-4.5-4.2-7.3-8.4-9-2.9-1.2-5.9-1.6-9-1.6-1,0-1.3-.4-1.3-1.3v-1.9c-3.2,2.7-6.2,5.2-9.3,7.8,3.1,2.3,6.1,4.5,9.3,6.8h0ZM241.1,67.5c.3.2.4.3.6.4,2.1,1.2,4.3,2.4,6.4,3.7.4.2.6.2,1.1,0,8-4.6,16-9.2,24-13.9.2-.1.4-.2.6-.4-2.4-1.4-4.7-2.7-7-4.1-.4-.2-.7-.2-1,0-4.5,2.6-9,5.2-13.5,7.8-3.7,2.1-7.3,4.2-11.1,6.4h0ZM258.7,77.7c2.4,1.4,4.7,2.7,7,4,.5.3.8.2,1.2,0,8-4.6,15.9-9.2,23.9-13.8.2-.1.4-.2.7-.4-2.4-1.4-4.7-2.7-7-4-.4-.3-.7-.2-1.2,0-7.5,4.4-15.1,8.7-22.6,13-.6.4-1.3.7-2,1.2ZM250.8,73.1c1.8,1.1,3.6,2,5.3,3.1.4.2.7.2,1.1,0,8-4.7,16-9.3,24.1-13.9.2,0,.3-.2.5-.3-1.8-1-3.5-2-5.1-3-.5-.3-.8-.3-1.3,0-4.4,2.6-8.8,5.1-13.2,7.6-3.7,2.2-7.5,4.3-11.4,6.6h0s0,0,0,0ZM249.8,75c0,.2,0,.2,0,.3,0,3.1,0,6.2,0,9.2,0,.2.2.5.4.7,1.5.9,3.1,1.8,4.6,2.7.2.1.4.2.7.4v-9.7c0-.1-.1-.3-.2-.4-1.8-1.1-3.6-2.1-5.5-3.2h0Z"></path></g><g><g class="st8"><path class="st4" d="M36.9,145.5v1.3h-5.5v4.2h4.4v1.3h-4.4v5.7h-1.6v-12.5h7.1Z"></path><path class="st4" d="M45.5,158.1l-3-5.1h-2v5.1h-1.6v-12.5h4c.9,0,1.7.2,2.4.5.7.3,1.1.8,1.5,1.3.3.6.5,1.2.5,1.9s-.2,1.6-.7,2.3c-.5.7-1.2,1.1-2.2,1.3l3.1,5.3h-2ZM40.5,151.6h2.4c.9,0,1.6-.2,2-.7.4-.4.7-1,.7-1.8s-.2-1.3-.7-1.7-1.1-.6-2-.6h-2.4v4.8Z"></path><path class="st4" d="M51.5,146.9v4.2h4.6v1.3h-4.6v4.3h5.1v1.3h-6.8v-12.6h6.8v1.4h-5.1Z"></path><path class="st4" d="M60.7,146.9v4.2h4.6v1.3h-4.6v4.3h5.1v1.3h-6.8v-12.6h6.8v1.4h-5.1Z"></path><path class="st4" d="M74.9,157.8c-.7-.3-1.2-.7-1.5-1.2-.4-.5-.6-1.1-.6-1.8h1.7c0,.6.3,1.1.7,1.5.4.4,1,.6,1.9.6s1.4-.2,1.8-.6.7-.9.7-1.5-.1-.9-.4-1.2c-.3-.3-.6-.5-1-.7-.4-.2-.9-.3-1.6-.5-.8-.2-1.5-.4-2-.6-.5-.2-.9-.6-1.3-1s-.5-1.1-.5-1.9.2-1.3.5-1.8c.3-.5.8-.9,1.5-1.2s1.4-.4,2.2-.4c1.2,0,2.1.3,2.9.9s1.2,1.4,1.3,2.3h-1.8c0-.5-.3-.9-.8-1.3s-1-.5-1.8-.5-1.2.2-1.7.5c-.4.4-.6.8-.6,1.5s.1.8.4,1.1c.3.3.6.5,1,.7.4.1.9.3,1.6.5.8.2,1.5.5,2,.7.5.2.9.6,1.3,1s.5,1.1.5,1.9-.2,1.2-.5,1.7c-.3.5-.8,1-1.4,1.3-.6.3-1.4.5-2.2.5s-1.6-.1-2.2-.4Z"></path><path class="st4" d="M93.3,145.5v12.5h-1.6v-5.7h-6.4v5.7h-1.6v-12.5h1.6v5.5h6.4v-5.5h1.6Z"></path><path class="st4" d="M97.8,145.5v12.5h-1.6v-12.5h1.6Z"></path><path class="st4" d="M107.9,151.8c-.7.7-1.8,1-3.3,1h-2.4v5.2h-1.6v-12.5h4c1.4,0,2.5.3,3.2,1,.7.7,1.1,1.6,1.1,2.6s-.4,1.9-1.1,2.6ZM106.6,150.9c.4-.4.6-1,.6-1.7,0-1.5-.9-2.3-2.7-2.3h-2.4v4.6h2.4c.9,0,1.6-.2,2-.6Z"></path><path class="st4" d="M118.3,151.8c-.7.7-1.8,1-3.3,1h-2.4v5.2h-1.6v-12.5h4c1.4,0,2.5.3,3.2,1,.7.7,1.1,1.6,1.1,2.6s-.4,1.9-1.1,2.6ZM117.1,150.9c.4-.4.6-1,.6-1.7,0-1.5-.9-2.3-2.7-2.3h-2.4v4.6h2.4c.9,0,1.6-.2,2-.6Z"></path><path class="st4" d="M123,145.5v12.5h-1.6v-12.5h1.6Z"></path><path class="st4" d="M135.7,158.1h-1.6l-6.6-10v10h-1.6v-12.6h1.6l6.6,10v-10h1.6v12.6Z"></path><path class="st4" d="M148,149.2c-.3-.7-.9-1.3-1.5-1.7-.7-.4-1.4-.6-2.3-.6s-1.7.2-2.4.6c-.7.4-1.3,1-1.7,1.7s-.6,1.6-.6,2.6.2,1.8.6,2.6c.4.7,1,1.3,1.7,1.7s1.5.6,2.4.6,2.2-.4,3-1.1c.8-.7,1.3-1.7,1.4-3h-5v-1.3h6.8v1.3c0,1-.4,2-1,2.8s-1.3,1.5-2.2,2-1.9.7-3,.7-2.2-.3-3.2-.8-1.7-1.3-2.3-2.3c-.6-1-.8-2.1-.8-3.3s.3-2.3.8-3.3c.6-1,1.3-1.7,2.3-2.3s2-.8,3.2-.8,2.5.3,3.5,1c1,.7,1.8,1.6,2.2,2.8h-2Z"></path></g><path class="st0" d="M93.5,102c0,1,0,2,0,3,0,.5-.2.9-.7,1.1-5.4,3.1-10.8,6.2-16.2,9.3-.4.3-.8.3-1.3,0-5.4-3.1-10.8-6.2-16.2-9.3-.5-.3-.7-.6-.7-1.1v-18.8c0-.6.3-.9.8-1.2,3.5-2,7.1-4.1,10.7-6.1.5-.3.7-.6.8-1.2.9-7.9,4.9-14,12-17.6,12.9-6.6,28.4.9,31.5,15.1,2.6,11.7-5.2,23.7-16.9,26.1-1.2.3-2.5.4-3.8.6h0ZM76.9,113.3c.2,0,.2,0,.3-.1,4.8-2.7,9.5-5.5,14.2-8.2.2-.1.3-.5.3-.8,0-5.3,0-10.7,0-16.1,0-.2,0-.3,0-.5-.3.1-.4.2-.6.4-4.5,2.6-9.1,5.2-13.6,7.8-.4.3-.6.5-.6,1.1,0,5.2,0,10.5,0,15.7v.7h0ZM60.2,87.5c0,.2,0,.4,0,.5v16.2c0,.4.2.6.5.8,4.6,2.6,9.1,5.3,13.7,7.9.2.1.4.2.6.3,0-.2,0-.2,0-.3,0-5.5,0-10.9,0-16.4,0-.2-.2-.5-.4-.7-.6-.4-1.3-.8-2-1.2-.7-.4-1.4-.8-2.3-1.3v.9c0,1.6,0,3.1,0,4.7,0,.3-.2.8-.5.8-.3,0-.7,0-1-.2-.4-.3-.8-.7-1.1-1.1-.5-.7-1.1-.9-1.9-.5-1,.4-1.4,0-1.4-1v-6.4c0-.2-.1-.6-.3-.7-1.3-.8-2.6-1.5-4-2.3h0ZM104.6,79h8.3c-.2-4.2-1.5-7.9-3.9-11.1-1.9.8-3.8,1.6-5.6,2.3.4,2.9.8,5.8,1.2,8.8h0ZM104.6,80.8c-.4,2.9-.8,5.8-1.2,8.7,1.8.8,3.7,1.6,5.6,2.4,2.4-3.2,3.7-6.9,3.9-11h-8.3,0ZM61.1,86c1.4.8,2.8,1.6,4.2,2.4.2,0,.6,0,.8,0,4.7-2.7,9.3-5.3,13.9-8,.1,0,.3-.2.4-.3-1.4-.8-2.7-1.5-3.9-2.3-.4-.2-.7-.2-1,0-4.6,2.7-9.2,5.3-13.8,8-.2.1-.4.2-.6.4h0ZM90.9,86c-1.4-.8-2.7-1.5-3.9-2.3-.4-.2-.7-.2-1.1,0-4.6,2.7-9.2,5.3-13.8,8-.2.1-.4.2-.6.4,1.3.8,2.6,1.5,3.9,2.2.4.2.7.3,1.2,0,3.2-1.9,6.3-3.7,9.5-5.5,1.6-.9,3.2-1.8,4.8-2.8h0ZM101.6,70.7c-2.7.3-5.4.7-8.1,1v7.2h9.2c0-2.8-.4-5.6-1.1-8.2h0ZM91.7,71.7c-2.7-.3-5.4-.7-8.2-1-.6,2.7-1.1,5.4-1.1,8.2h9.2v-7.2h0ZM93.5,87.9c2.7.3,5.4.7,8.1,1,.7-2.6,1-5.4,1.1-8.2h-9.2v7.2h0ZM80.6,78.1c.4-2.5.8-5,1.2-7.5,0-.2-.2-.4-.3-.5-1.7-.7-3.5-1.4-5.3-2.2-2,2.8-3.3,5.9-3.8,9.6,1-.6,1.9-1.1,2.8-1.6.5-.3,1-.3,1.5,0,1.3.8,2.6,1.5,3.8,2.2h0ZM84,69c2.7.3,5.2.6,7.8.9v-10.5c-4.6,1.6-6.1,5.5-7.8,9.5ZM93.5,59.6v10.2c2.6,0,5.1-.3,7.5-.9-.6-2.2-2.1-5.1-3.5-6.8-1.1-1.2-2.3-2.2-4-2.6h0ZM93.5,89.8v10.2c3.1-.3,6.3-4.7,7.5-9.3-2.5-.6-5-.9-7.5-.9ZM67.3,89.6c.7.4,1.4.8,2,1.2.4.2.7.2,1,0,3.6-2.1,7.2-4.2,10.8-6.2,1.2-.7,2.4-1.4,3.6-2.1-.7-.4-1.4-.8-2-1.2-.3-.2-.6-.2-1,0-3.7,2.1-7.3,4.2-11,6.3-1.1.6-2.2,1.3-3.4,2h0ZM98.4,99.2c2.3,0,8.2-3.8,9.4-6.1-1.7-.7-3.3-1.3-5-2.1-1,3-2.3,5.8-4.5,8.1h0ZM107.9,66.5c-2.7-3-5.8-5-9.5-6,2.1,2.3,3.4,5.1,4.4,8.1,1.7-.7,3.3-1.4,5.1-2.1h0ZM77.3,66.5c1.7.7,3.4,1.4,5.1,2.1,1-3.1,2.3-5.8,4.4-8.1-3.7,1.1-6.8,3-9.4,6.1h0ZM91.7,80.8h-6.3c2.1,1.3,4.2,2.5,6.3,3.8v-3.8h0ZM68.7,96.7v-3.9c0-.1,0-.3-.2-.4-.7-.4-1.4-.8-2.2-1.3v5c1-.6,1.7-.1,2.4.6h0Z"></path><path class="st0" d="M99.6,107.4c.7.3,1.2.6,1.7.9.6.3.8.8.5,1.3-.3.5-.8.5-1.3.3-1.2-.6-2.3-1.2-3.5-1.9-.5-.3-.7-.7-.4-1.3.6-1.2,1.2-2.3,1.9-3.5.3-.5.8-.7,1.2-.5.5.2.6.7.3,1.3-.3.5-.6,1.1-.8,1.6,0,0,0,.1.1.2,1.6-.6,3.2-1.1,4.7-1.9,8.2-4.1,13.3-10.6,14.8-19.6,2.3-13.7-6-26.5-19.3-30.2-14.6-4.1-29.9,5.2-33,20,0,.2,0,.4-.1.7-.2.6-.6.9-1.1.8-.6-.1-.8-.5-.6-1.1.3-1.2.5-2.3.9-3.4,3.7-10.3,10.8-16.8,21.5-19.1,15.5-3.2,30.5,7,33.4,22.4,2.8,14.6-6,28.7-20.4,32.8,0,0-.2,0-.5.2h0Z"></path><path class="st0" d="M66.8,104.1c0,.8-.7,1.2-1.2.9-.9-.5-1.9-1-2.8-1.6-.4-.3-.5-.7-.3-1.2.2-.4.7-.5,1.1-.3.9.5,1.9,1,2.8,1.6.2.1.3.4.4.6h0Z"></path></g><g><path class="st1" d="M693.9,85.8h1c7.7,0,15.3,0,22.9,0s1.8.3,1.8,1.9v26.8c0,1.4-.3,1.8-1.7,1.8h-48.7c-1.4,0-1.7-.3-1.7-1.7v-13.1c-14.5-1.3-25.8-15.7-21.7-31.2,3.5-13.3,17.7-21.4,31.1-17.8,13.4,3.5,23,18.3,17,33.5h0ZM717.2,98.9c-5.7-1.3-9.5-4.5-10.6-10.5,0,0-.2,0-.2,0-8.4,0-16.7,0-25.1,0-.5,0-.5.2-.6.6-1,4.7-3.8,7.8-8.4,9.2-.7.2-1.4.3-2.1.5v4.3c6.6.6,9.9,4.4,10.8,10.7h25.6c.7-6.5,4.6-10,10.7-11.3v-3.4h0ZM686.5,77.8h-1.6c-1.3,0-1.9-.4-1.9-1.3s.6-1.3,1.9-1.3h2.1c-.2-7.8-7.4-14.8-15.4-15.1v2.5c0,.9-.5,1.5-1.3,1.4-.7,0-1.2-.5-1.2-1.4,0-.8,0-1.7,0-2.5-6.7-.8-16.3,8.7-15.3,15.1h1.3c.4,0,.9,0,1.3,0,.9,0,1.5.7,1.3,1.5-.2.7-.7,1.1-1.4,1.1-.9,0-1.7,0-2.6,0,.3,7.6,7,14.1,13.8,14.9v-4.9c0-1.6.3-1.9,1.9-1.9,4.7,0,9.3,0,14,0,.3,0,.7,0,.9-.3,1.6-2.3,2.5-4.8,2.7-7.8h-.5ZM667.5,95.3c-11.2-1.8-18.5-12.4-15.9-23.2,2.3-10.1,12.9-16.5,23.2-14.1,5.1,1.2,9.2,4,12,8.6,3.8,6.3,3.8,12.8.5,19.3,1.1,0,2.2,0,3.2,0,.5,0,.8-.2,1-.7,2.3-5.5,2.5-11,.3-16.6-4.1-10.7-15.6-16.7-26.8-14-11.2,2.7-18.4,13.1-17.2,24.5,1,8.8,7.7,16.5,16.3,18.9,1.1.3,2.3.5,3.5.8v-3.5h0ZM717.2,105c-4.7.8-8,4.4-8,8.7h8v-8.7ZM670.1,113.7h8.2c-.4-4.7-3.9-8.2-8.2-8.1v8.1ZM709.2,88.4c.2,3.5,3.7,7.2,7.9,7.8v-7.8h-7.9ZM670.1,88.4v7.6c3.6,0,7.7-3.8,8-7.6h-8Z"></path><path class="st0" d="M669.3,75.4v-8.4c0-.9.5-1.4,1.2-1.4.7,0,1.2.6,1.2,1.5v9.4c0,1-.5,1.5-1.5,1.5-2.4,0-4.8,0-7.3,0-.9,0-1.5-.6-1.5-1.3,0-.7.6-1.2,1.5-1.2,1.8,0,3.6,0,5.4,0h.9s0,0,0,0Z"></path><path class="st3" d="M694.5,109.2c-.2-.3-.5-.6-.7-.8-1.7-2-3.4-4-5.2-5.9,0-.1-.2-.2-.2-.4v-1.3c0-.3.2-.4.5-.5.6,0,1.3,0,1.9,0,.8,0,1.5-.2,2.2-.7.4-.3.7-.7.8-1.2h-5c-.2,0-.3-.1-.3-.3v-1.3c0-.2.1-.3.3-.3,0,0,.2,0,.2,0h4.6s0,0,0,0c-.1-.2-.2-.3-.3-.4-.4-.4-.9-.6-1.4-.7-.5,0-1-.1-1.5-.1-.5,0-1,0-1.5,0s-.5-.1-.5-.5v-1.3c0-.3.1-.5.5-.5h9.5c.3,0,.5.1.5.5v.9c0,.4-.1.5-.5.5h-2.5c0,.2.2.3.3.4.2.3.3.7.4,1.1,0,.1,0,.2.2.2h1.7c.4,0,.5.1.5.5v1c0,.3-.1.4-.5.4h-1.7c-.1,0-.2,0-.2.1-.3,1.7-1.4,2.9-3,3.5-.5.2-1.1.3-1.6.4,0,0,0,0,.1.1,1.8,1.9,3.5,4,5.2,6,.2.2.2.5-.1.6h-2.5,0,0Z"></path><g class="st8"><path class="st9" d="M610.5,151.7c-.7.7-1.8,1-3.3,1h-2.4v5.2h-1.6v-12.5h4c1.4,0,2.5.3,3.2,1,.7.7,1.1,1.6,1.1,2.6s-.4,1.9-1.1,2.6ZM609.3,150.8c.4-.4.6-1,.6-1.7,0-1.5-.9-2.3-2.7-2.3h-2.4v4.6h2.4c.9,0,1.6-.2,2-.6Z"></path><path class="st9" d="M621,155.2h-5.5l-1,2.8h-1.7l4.5-12.5h1.9l4.5,12.5h-1.7l-1-2.8ZM620.6,153.8l-2.3-6.3-2.3,6.3h4.5Z"></path><path class="st9" d="M634.5,145.4l-4.1,7.8v4.7h-1.6v-4.7l-4.1-7.8h1.8l3.1,6.4,3.1-6.4h1.8Z"></path><path class="st9" d="M649,145.5v12.5h-1.6v-9.3l-4.1,9.3h-1.2l-4.2-9.3v9.3h-1.6v-12.5h1.8l4.6,10.3,4.6-10.3h1.7Z"></path><path class="st9" d="M653.4,146.7v4.2h4.6v1.3h-4.6v4.3h5.1v1.3h-6.8v-12.6h6.8v1.4h-5.1Z"></path><path class="st9" d="M670.9,157.9h-1.6l-6.6-10v10h-1.6v-12.6h1.6l6.6,10v-10h1.6v12.6Z"></path><path class="st9" d="M681.4,145.4v1.3h-3.4v11.2h-1.6v-11.2h-3.4v-1.3h8.5Z"></path><path class="st9" d="M690.7,157.2c-1-.5-1.7-1.3-2.3-2.3-.6-1-.8-2.1-.8-3.3s.3-2.3.8-3.3c.6-1,1.3-1.7,2.3-2.3,1-.5,2-.8,3.2-.8s2.2.3,3.2.8c1,.5,1.7,1.3,2.3,2.3.6,1,.8,2.1.8,3.3s-.3,2.3-.8,3.3c-.6,1-1.3,1.7-2.3,2.3-1,.5-2,.8-3.2.8s-2.2-.3-3.2-.8ZM696.2,156c.7-.4,1.3-1,1.7-1.7s.6-1.6.6-2.6-.2-1.9-.6-2.6-1-1.3-1.6-1.7c-.7-.4-1.5-.6-2.4-.6s-1.7.2-2.4.6c-.7.4-1.2,1-1.6,1.7-.4.8-.6,1.6-.6,2.6s.2,1.9.6,2.6c.4.8,1,1.3,1.7,1.7.7.4,1.5.6,2.4.6s1.7-.2,2.4-.6Z"></path><path class="st9" d="M709.7,151.7c-.7.7-1.8,1-3.3,1h-2.4v5.2h-1.6v-12.5h4c1.4,0,2.5.3,3.2,1,.7.7,1.1,1.6,1.1,2.6s-.4,1.9-1.1,2.6ZM708.4,150.8c.4-.4.6-1,.6-1.7,0-1.5-.9-2.3-2.7-2.3h-2.4v4.6h2.4c.9,0,1.6-.2,2-.6Z"></path><path class="st9" d="M720.5,145.4v1.3h-3.4v11.2h-1.6v-11.2h-3.4v-1.3h8.5Z"></path><path class="st9" d="M724.1,145.4v12.5h-1.6v-12.5h1.6Z"></path><path class="st9" d="M729.4,157.2c-1-.5-1.7-1.3-2.3-2.3-.6-1-.8-2.1-.8-3.3s.3-2.3.8-3.3c.6-1,1.3-1.7,2.3-2.3s2-.8,3.2-.8,2.2.3,3.2.8c1,.5,1.7,1.3,2.3,2.3.6,1,.8,2.1.8,3.3s-.3,2.3-.8,3.3c-.6,1-1.3,1.7-2.3,2.3-1,.5-2,.8-3.2.8s-2.2-.3-3.2-.8ZM735,156c.7-.4,1.3-1,1.7-1.7s.6-1.6.6-2.6-.2-1.9-.6-2.6-1-1.3-1.6-1.7c-.7-.4-1.5-.6-2.4-.6s-1.7.2-2.4.6c-.7.4-1.2,1-1.6,1.7s-.6,1.6-.6,2.6.2,1.9.6,2.6,1,1.3,1.7,1.7c.7.4,1.5.6,2.4.6s1.7-.2,2.4-.6Z"></path><path class="st9" d="M750.9,157.9h-1.6l-6.6-10v10h-1.6v-12.6h1.6l6.6,10v-10h1.6v12.6Z"></path><path class="st9" d="M755.5,157.6c-.7-.3-1.2-.7-1.5-1.2-.4-.5-.6-1.1-.6-1.8h1.7c0,.6.3,1.1.7,1.5.4.4,1,.6,1.9.6s1.4-.2,1.8-.6.7-.9.7-1.5-.1-.9-.4-1.2c-.3-.3-.6-.5-1-.7-.4-.2-.9-.3-1.6-.5-.8-.2-1.5-.4-2-.6-.5-.2-.9-.6-1.3-1s-.5-1.1-.5-1.9.2-1.3.5-1.8c.3-.5.8-.9,1.5-1.2s1.4-.4,2.2-.4c1.2,0,2.1.3,2.9.9s1.2,1.4,1.3,2.3h-1.8c0-.5-.3-.9-.8-1.3-.4-.4-1-.5-1.8-.5s-1.2.2-1.7.5c-.4.4-.6.8-.6,1.5s.1.8.4,1.1c.3.3.6.5,1,.7.4.1.9.3,1.6.5.8.2,1.5.5,2,.7.5.2.9.6,1.3,1s.5,1.1.5,1.9-.2,1.2-.5,1.7c-.3.5-.8,1-1.4,1.3-.6.3-1.4.5-2.2.5s-1.6-.1-2.2-.4Z"></path></g></g></g></svg>